<mxfile host="app.diagrams.net" modified="2023-12-25T04:36:14.003Z" agent="Mozilla/5.0 (Macintosh; Intel Mac OS X 10_15_7) AppleWebKit/537.36 (KHTML, like Gecko) Chrome/120.0.0.0 Safari/537.36" etag="xWiKq1NFNp9PNU5CPZy5" version="22.1.11" type="github">
  <diagram name="Page-1" id="tfuzhllJTT45AtUf2vew">
    <mxGraphModel dx="1275" dy="637" grid="1" gridSize="10" guides="1" tooltips="1" connect="1" arrows="1" fold="1" page="1" pageScale="1" pageWidth="1169" pageHeight="827" math="0" shadow="0">
      <root>
        <mxCell id="0" />
        <mxCell id="1" parent="0" />
        <mxCell id="FVwCDYh0nOwrm6psJOgy-3" value="" style="edgeStyle=orthogonalEdgeStyle;rounded=0;orthogonalLoop=1;jettySize=auto;html=1;dashed=1;dashPattern=12 12;" parent="1" source="FVwCDYh0nOwrm6psJOgy-1" target="FVwCDYh0nOwrm6psJOgy-2" edge="1">
          <mxGeometry relative="1" as="geometry" />
        </mxCell>
        <mxCell id="FVwCDYh0nOwrm6psJOgy-47" style="edgeStyle=orthogonalEdgeStyle;rounded=0;orthogonalLoop=1;jettySize=auto;html=1;entryX=0.5;entryY=0;entryDx=0;entryDy=0;" parent="1" source="FVwCDYh0nOwrm6psJOgy-1" target="FVwCDYh0nOwrm6psJOgy-46" edge="1">
          <mxGeometry relative="1" as="geometry">
            <mxPoint x="900" y="190" as="targetPoint" />
            <Array as="points">
              <mxPoint x="260" y="140" />
              <mxPoint x="900" y="140" />
            </Array>
          </mxGeometry>
        </mxCell>
        <mxCell id="FVwCDYh0nOwrm6psJOgy-1" value="&lt;font style=&quot;font-size: 18px;&quot;&gt;生鸭脖、鸭翅&lt;/font&gt;" style="rounded=0;whiteSpace=wrap;html=1;" parent="1" vertex="1">
          <mxGeometry x="200" y="77.5" width="120" height="40" as="geometry" />
        </mxCell>
        <mxCell id="FVwCDYh0nOwrm6psJOgy-5" value="" style="edgeStyle=orthogonalEdgeStyle;rounded=0;orthogonalLoop=1;jettySize=auto;html=1;dashed=1;dashPattern=12 12;" parent="1" source="FVwCDYh0nOwrm6psJOgy-2" target="FVwCDYh0nOwrm6psJOgy-4" edge="1">
          <mxGeometry relative="1" as="geometry">
            <Array as="points">
              <mxPoint x="554" y="95" />
              <mxPoint x="554" y="95" />
            </Array>
          </mxGeometry>
        </mxCell>
        <mxCell id="FVwCDYh0nOwrm6psJOgy-48" style="edgeStyle=orthogonalEdgeStyle;rounded=0;orthogonalLoop=1;jettySize=auto;html=1;endArrow=none;endFill=0;" parent="1" source="FVwCDYh0nOwrm6psJOgy-2" edge="1">
          <mxGeometry relative="1" as="geometry">
            <mxPoint x="460" y="140" as="targetPoint" />
          </mxGeometry>
        </mxCell>
        <mxCell id="FVwCDYh0nOwrm6psJOgy-2" value="&lt;font style=&quot;font-size: 18px;&quot;&gt;腌制鸭肉&lt;/font&gt;" style="whiteSpace=wrap;html=1;rounded=0;" parent="1" vertex="1">
          <mxGeometry x="400" y="77.5" width="120" height="40" as="geometry" />
        </mxCell>
        <mxCell id="FVwCDYh0nOwrm6psJOgy-7" value="" style="edgeStyle=orthogonalEdgeStyle;rounded=0;orthogonalLoop=1;jettySize=auto;html=1;dashed=1;dashPattern=12 12;" parent="1" source="FVwCDYh0nOwrm6psJOgy-4" target="FVwCDYh0nOwrm6psJOgy-6" edge="1">
          <mxGeometry relative="1" as="geometry" />
        </mxCell>
        <mxCell id="FVwCDYh0nOwrm6psJOgy-49" style="edgeStyle=orthogonalEdgeStyle;rounded=0;orthogonalLoop=1;jettySize=auto;html=1;endArrow=none;endFill=0;" parent="1" source="FVwCDYh0nOwrm6psJOgy-4" edge="1">
          <mxGeometry relative="1" as="geometry">
            <mxPoint x="657.9999999999998" y="140" as="targetPoint" />
          </mxGeometry>
        </mxCell>
        <mxCell id="FVwCDYh0nOwrm6psJOgy-4" value="&lt;font style=&quot;font-size: 18px;&quot;&gt;卤制鸭肉&lt;/font&gt;" style="whiteSpace=wrap;html=1;rounded=0;" parent="1" vertex="1">
          <mxGeometry x="598" y="77.5" width="120" height="40" as="geometry" />
        </mxCell>
        <mxCell id="FVwCDYh0nOwrm6psJOgy-51" style="edgeStyle=orthogonalEdgeStyle;rounded=0;orthogonalLoop=1;jettySize=auto;html=1;endArrow=none;endFill=0;" parent="1" source="FVwCDYh0nOwrm6psJOgy-6" edge="1">
          <mxGeometry relative="1" as="geometry">
            <mxPoint x="864" y="140" as="targetPoint" />
          </mxGeometry>
        </mxCell>
        <mxCell id="FVwCDYh0nOwrm6psJOgy-6" value="&lt;font style=&quot;font-size: 18px;&quot;&gt;焖制鸭肉&lt;/font&gt;" style="whiteSpace=wrap;html=1;rounded=0;" parent="1" vertex="1">
          <mxGeometry x="804" y="77.5" width="120" height="40" as="geometry" />
        </mxCell>
        <mxCell id="FVwCDYh0nOwrm6psJOgy-8" value="" style="edgeStyle=orthogonalEdgeStyle;rounded=0;orthogonalLoop=1;jettySize=auto;html=1;dashed=1;dashPattern=12 12;" parent="1" edge="1">
          <mxGeometry relative="1" as="geometry">
            <mxPoint x="574" y="715.23" as="sourcePoint" />
            <mxPoint x="614" y="714.73" as="targetPoint" />
            <Array as="points">
              <mxPoint x="564" y="714.73" />
              <mxPoint x="564" y="714.73" />
            </Array>
          </mxGeometry>
        </mxCell>
        <mxCell id="FVwCDYh0nOwrm6psJOgy-9" value="&lt;font style=&quot;font-size: 18px;&quot;&gt;工艺路线&lt;/font&gt;" style="text;strokeColor=none;align=center;fillColor=none;html=1;verticalAlign=middle;whiteSpace=wrap;rounded=0;" parent="1" vertex="1">
          <mxGeometry x="614" y="700" width="90" height="30" as="geometry" />
        </mxCell>
        <mxCell id="FVwCDYh0nOwrm6psJOgy-10" value="" style="edgeStyle=orthogonalEdgeStyle;rounded=0;orthogonalLoop=1;jettySize=auto;html=1;" parent="1" edge="1">
          <mxGeometry relative="1" as="geometry">
            <mxPoint x="714" y="715.23" as="sourcePoint" />
            <mxPoint x="754" y="714.73" as="targetPoint" />
            <Array as="points">
              <mxPoint x="734" y="714.98" />
            </Array>
          </mxGeometry>
        </mxCell>
        <mxCell id="FVwCDYh0nOwrm6psJOgy-11" value="&lt;font style=&quot;font-size: 18px;&quot;&gt;研究路线&lt;/font&gt;" style="text;strokeColor=none;align=center;fillColor=none;html=1;verticalAlign=middle;whiteSpace=wrap;rounded=0;" parent="1" vertex="1">
          <mxGeometry x="754" y="700" width="90" height="30" as="geometry" />
        </mxCell>
        <mxCell id="FVwCDYh0nOwrm6psJOgy-13" value="&lt;font style=&quot;font-size: 18px;&quot;&gt;关键环节&lt;/font&gt;" style="text;strokeColor=none;align=center;fillColor=none;html=1;verticalAlign=middle;whiteSpace=wrap;rounded=0;" parent="1" vertex="1">
          <mxGeometry x="884" y="700" width="90" height="30" as="geometry" />
        </mxCell>
        <mxCell id="FVwCDYh0nOwrm6psJOgy-14" value="" style="verticalLabelPosition=bottom;verticalAlign=top;html=1;shape=mxgraph.basic.star;fillColor=#000000;" parent="1" vertex="1">
          <mxGeometry x="864" y="705" width="20" height="20" as="geometry" />
        </mxCell>
        <mxCell id="FVwCDYh0nOwrm6psJOgy-15" value="" style="verticalLabelPosition=bottom;verticalAlign=top;html=1;shape=mxgraph.basic.star;fillColor=#000000;" parent="1" vertex="1">
          <mxGeometry x="526" y="65" width="20" height="20" as="geometry" />
        </mxCell>
        <mxCell id="FVwCDYh0nOwrm6psJOgy-16" value="&lt;span style=&quot;font-size: 18px;&quot;&gt;卤制&lt;/span&gt;" style="text;align=center;html=1;verticalAlign=middle;whiteSpace=wrap;rounded=0;" parent="1" vertex="1">
          <mxGeometry x="546" y="60" width="46" height="30" as="geometry" />
        </mxCell>
        <mxCell id="FVwCDYh0nOwrm6psJOgy-18" value="" style="endArrow=classic;html=1;rounded=0;jumpSize=12;" parent="1" edge="1">
          <mxGeometry width="50" height="50" relative="1" as="geometry">
            <mxPoint x="563" y="145" as="sourcePoint" />
            <mxPoint x="563" y="170" as="targetPoint" />
          </mxGeometry>
        </mxCell>
        <mxCell id="FVwCDYh0nOwrm6psJOgy-21" style="edgeStyle=orthogonalEdgeStyle;rounded=0;orthogonalLoop=1;jettySize=auto;html=1;entryX=0.5;entryY=0;entryDx=0;entryDy=0;" parent="1" source="FVwCDYh0nOwrm6psJOgy-19" target="FVwCDYh0nOwrm6psJOgy-23" edge="1">
          <mxGeometry relative="1" as="geometry">
            <mxPoint x="820" y="240" as="targetPoint" />
          </mxGeometry>
        </mxCell>
        <mxCell id="FVwCDYh0nOwrm6psJOgy-19" value="&lt;span style=&quot;font-size: 18px;&quot;&gt;风味特征变化&lt;/span&gt;" style="whiteSpace=wrap;html=1;rounded=0;" parent="1" vertex="1">
          <mxGeometry x="504" y="170" width="120" height="40" as="geometry" />
        </mxCell>
        <mxCell id="FVwCDYh0nOwrm6psJOgy-24" style="edgeStyle=orthogonalEdgeStyle;rounded=0;orthogonalLoop=1;jettySize=auto;html=1;entryX=0.5;entryY=0;entryDx=0;entryDy=0;" parent="1" edge="1">
          <mxGeometry relative="1" as="geometry">
            <mxPoint x="80" y="349.68" as="targetPoint" />
            <Array as="points">
              <mxPoint x="180" y="270" />
              <mxPoint x="180" y="310" />
              <mxPoint x="80" y="310" />
            </Array>
            <mxPoint x="200" y="270" as="sourcePoint" />
          </mxGeometry>
        </mxCell>
        <mxCell id="xyNp4E9_5skIMut7RiBI-2" style="edgeStyle=orthogonalEdgeStyle;rounded=0;orthogonalLoop=1;jettySize=auto;html=1;entryX=0.5;entryY=0;entryDx=0;entryDy=0;" edge="1" parent="1">
          <mxGeometry relative="1" as="geometry">
            <mxPoint x="180" y="269.99" as="sourcePoint" />
            <mxPoint x="285" y="349.6700000000001" as="targetPoint" />
            <Array as="points">
              <mxPoint x="180" y="310" />
              <mxPoint x="285" y="310" />
            </Array>
          </mxGeometry>
        </mxCell>
        <mxCell id="FVwCDYh0nOwrm6psJOgy-22" value="&lt;span style=&quot;font-size: 18px;&quot;&gt;卤汤特征滋味变化规律&lt;/span&gt;" style="whiteSpace=wrap;html=1;rounded=1;labelBackgroundColor=none;fillColor=#cdeb8b;strokeColor=#36393d;gradientColor=none;gradientDirection=north;glass=0;shadow=1;" parent="1" vertex="1">
          <mxGeometry x="110" y="220" width="130" height="50" as="geometry" />
        </mxCell>
        <mxCell id="FVwCDYh0nOwrm6psJOgy-55" style="edgeStyle=orthogonalEdgeStyle;rounded=0;orthogonalLoop=1;jettySize=auto;html=1;entryX=0.5;entryY=0;entryDx=0;entryDy=0;" parent="1" source="FVwCDYh0nOwrm6psJOgy-23" target="FVwCDYh0nOwrm6psJOgy-53" edge="1">
          <mxGeometry relative="1" as="geometry" />
        </mxCell>
        <mxCell id="FVwCDYh0nOwrm6psJOgy-23" value="&lt;span style=&quot;font-size: 18px;&quot;&gt;挥发性特征风味&lt;/span&gt;" style="whiteSpace=wrap;html=1;rounded=1;labelBackgroundColor=none;fillColor=#d80073;fontColor=#ffffff;strokeColor=#A50040;shadow=1;" parent="1" vertex="1">
          <mxGeometry x="650" y="240" width="132" height="40" as="geometry" />
        </mxCell>
        <mxCell id="FVwCDYh0nOwrm6psJOgy-27" style="edgeStyle=orthogonalEdgeStyle;rounded=0;orthogonalLoop=1;jettySize=auto;html=1;" parent="1" source="FVwCDYh0nOwrm6psJOgy-26" edge="1">
          <mxGeometry relative="1" as="geometry">
            <mxPoint x="25" y="439.68" as="targetPoint" />
          </mxGeometry>
        </mxCell>
        <mxCell id="FVwCDYh0nOwrm6psJOgy-28" style="edgeStyle=orthogonalEdgeStyle;rounded=0;orthogonalLoop=1;jettySize=auto;html=1;" parent="1" source="FVwCDYh0nOwrm6psJOgy-26" edge="1">
          <mxGeometry relative="1" as="geometry">
            <mxPoint x="65" y="439.68" as="targetPoint" />
          </mxGeometry>
        </mxCell>
        <mxCell id="FVwCDYh0nOwrm6psJOgy-29" style="edgeStyle=orthogonalEdgeStyle;rounded=0;orthogonalLoop=1;jettySize=auto;html=1;" parent="1" source="FVwCDYh0nOwrm6psJOgy-26" edge="1">
          <mxGeometry relative="1" as="geometry">
            <mxPoint x="105" y="439.68" as="targetPoint" />
          </mxGeometry>
        </mxCell>
        <mxCell id="FVwCDYh0nOwrm6psJOgy-30" style="edgeStyle=orthogonalEdgeStyle;rounded=0;orthogonalLoop=1;jettySize=auto;html=1;" parent="1" source="FVwCDYh0nOwrm6psJOgy-26" edge="1">
          <mxGeometry relative="1" as="geometry">
            <mxPoint x="145" y="439.68" as="targetPoint" />
          </mxGeometry>
        </mxCell>
        <mxCell id="FVwCDYh0nOwrm6psJOgy-26" value="&lt;span style=&quot;font-size: 18px;&quot;&gt;UPLC检测&lt;/span&gt;" style="whiteSpace=wrap;html=1;rounded=0;" parent="1" vertex="1">
          <mxGeometry x="25" y="349.68" width="120" height="40" as="geometry" />
        </mxCell>
        <mxCell id="FVwCDYh0nOwrm6psJOgy-36" style="edgeStyle=orthogonalEdgeStyle;rounded=0;orthogonalLoop=1;jettySize=auto;html=1;endArrow=none;endFill=0;" parent="1" edge="1">
          <mxGeometry relative="1" as="geometry">
            <mxPoint x="25" y="569.68" as="targetPoint" />
            <mxPoint x="25" y="539.68" as="sourcePoint" />
          </mxGeometry>
        </mxCell>
        <mxCell id="FVwCDYh0nOwrm6psJOgy-31" value="&lt;font style=&quot;font-size: 18px;&quot;&gt;肉桂醛&lt;/font&gt;" style="whiteSpace=wrap;html=1;rounded=0;fontSize=18;" parent="1" vertex="1">
          <mxGeometry x="10" y="439.68" width="30" height="120" as="geometry" />
        </mxCell>
        <mxCell id="FVwCDYh0nOwrm6psJOgy-37" style="edgeStyle=orthogonalEdgeStyle;rounded=0;orthogonalLoop=1;jettySize=auto;html=1;endArrow=none;endFill=0;" parent="1" edge="1">
          <mxGeometry relative="1" as="geometry">
            <mxPoint x="65" y="569.68" as="targetPoint" />
            <mxPoint x="65" y="539.68" as="sourcePoint" />
          </mxGeometry>
        </mxCell>
        <mxCell id="FVwCDYh0nOwrm6psJOgy-32" value="&lt;font style=&quot;font-size: 18px;&quot;&gt;丁香酚&lt;/font&gt;" style="whiteSpace=wrap;html=1;rounded=0;fontSize=18;" parent="1" vertex="1">
          <mxGeometry x="50" y="439.68" width="30" height="120" as="geometry" />
        </mxCell>
        <mxCell id="FVwCDYh0nOwrm6psJOgy-38" style="edgeStyle=orthogonalEdgeStyle;rounded=0;orthogonalLoop=1;jettySize=auto;html=1;endArrow=none;endFill=0;" parent="1" edge="1">
          <mxGeometry relative="1" as="geometry">
            <mxPoint x="105" y="569.68" as="targetPoint" />
            <mxPoint x="105" y="539.68" as="sourcePoint" />
          </mxGeometry>
        </mxCell>
        <mxCell id="FVwCDYh0nOwrm6psJOgy-33" value="&lt;font style=&quot;font-size: 18px;&quot;&gt;胡椒碱&lt;/font&gt;" style="whiteSpace=wrap;html=1;rounded=0;fontSize=18;" parent="1" vertex="1">
          <mxGeometry x="90" y="439.68" width="30" height="120" as="geometry" />
        </mxCell>
        <mxCell id="FVwCDYh0nOwrm6psJOgy-39" style="edgeStyle=orthogonalEdgeStyle;rounded=0;orthogonalLoop=1;jettySize=auto;html=1;endArrow=none;endFill=0;" parent="1" edge="1">
          <mxGeometry relative="1" as="geometry">
            <mxPoint x="145" y="569.68" as="targetPoint" />
            <mxPoint x="145" y="539.68" as="sourcePoint" />
          </mxGeometry>
        </mxCell>
        <mxCell id="FVwCDYh0nOwrm6psJOgy-34" value="&lt;font style=&quot;font-size: 18px;&quot;&gt;总辣椒碱&lt;/font&gt;" style="whiteSpace=wrap;html=1;rounded=0;fontSize=18;" parent="1" vertex="1">
          <mxGeometry x="130" y="439.68" width="30" height="120" as="geometry" />
        </mxCell>
        <mxCell id="FVwCDYh0nOwrm6psJOgy-41" style="edgeStyle=orthogonalEdgeStyle;rounded=0;orthogonalLoop=1;jettySize=auto;html=1;endArrow=none;endFill=0;" parent="1" edge="1">
          <mxGeometry relative="1" as="geometry">
            <mxPoint x="145" y="569.68" as="targetPoint" />
            <mxPoint x="25" y="569.68" as="sourcePoint" />
          </mxGeometry>
        </mxCell>
        <mxCell id="FVwCDYh0nOwrm6psJOgy-42" style="edgeStyle=orthogonalEdgeStyle;rounded=0;orthogonalLoop=1;jettySize=auto;html=1;" parent="1" edge="1">
          <mxGeometry relative="1" as="geometry">
            <mxPoint x="350" y="650" as="targetPoint" />
            <mxPoint x="90" y="580" as="sourcePoint" />
            <Array as="points">
              <mxPoint x="90" y="570" />
              <mxPoint x="90" y="610" />
              <mxPoint x="350" y="610" />
            </Array>
          </mxGeometry>
        </mxCell>
        <mxCell id="FVwCDYh0nOwrm6psJOgy-74" style="edgeStyle=orthogonalEdgeStyle;rounded=0;orthogonalLoop=1;jettySize=auto;html=1;entryX=0;entryY=0.5;entryDx=0;entryDy=0;endArrow=none;endFill=0;exitX=1.013;exitY=0.504;exitDx=0;exitDy=0;exitPerimeter=0;" parent="1" source="FVwCDYh0nOwrm6psJOgy-45" target="FVwCDYh0nOwrm6psJOgy-71" edge="1">
          <mxGeometry relative="1" as="geometry">
            <mxPoint x="476" y="670" as="sourcePoint" />
            <mxPoint x="582" y="660" as="targetPoint" />
            <Array as="points">
              <mxPoint x="556" y="670" />
              <mxPoint x="556" y="660" />
            </Array>
          </mxGeometry>
        </mxCell>
        <mxCell id="FVwCDYh0nOwrm6psJOgy-45" value="&lt;span style=&quot;font-size: 18px;&quot;&gt;主要滋味成分定量预测模型&lt;/span&gt;" style="whiteSpace=wrap;html=1;rounded=0;" parent="1" vertex="1">
          <mxGeometry x="240" y="650" width="230" height="40" as="geometry" />
        </mxCell>
        <mxCell id="FVwCDYh0nOwrm6psJOgy-52" style="edgeStyle=orthogonalEdgeStyle;rounded=0;orthogonalLoop=1;jettySize=auto;html=1;entryX=1;entryY=0.5;entryDx=0;entryDy=0;" parent="1" source="FVwCDYh0nOwrm6psJOgy-46" target="FVwCDYh0nOwrm6psJOgy-53" edge="1">
          <mxGeometry relative="1" as="geometry">
            <mxPoint x="900" y="320" as="targetPoint" />
            <Array as="points">
              <mxPoint x="900" y="355" />
            </Array>
          </mxGeometry>
        </mxCell>
        <mxCell id="FVwCDYh0nOwrm6psJOgy-46" value="&lt;span style=&quot;font-size: 18px;&quot;&gt;GCIMS&lt;/span&gt;" style="whiteSpace=wrap;html=1;rounded=1;fillColor=#cdeb8b;strokeColor=#36393d;shadow=1;gradientDirection=north;fillStyle=auto;" parent="1" vertex="1">
          <mxGeometry x="841" y="240" width="120" height="40" as="geometry" />
        </mxCell>
        <mxCell id="FVwCDYh0nOwrm6psJOgy-66" style="edgeStyle=orthogonalEdgeStyle;rounded=0;orthogonalLoop=1;jettySize=auto;html=1;entryX=0.5;entryY=0;entryDx=0;entryDy=0;" parent="1" source="FVwCDYh0nOwrm6psJOgy-53" target="FVwCDYh0nOwrm6psJOgy-56" edge="1">
          <mxGeometry relative="1" as="geometry" />
        </mxCell>
        <mxCell id="FVwCDYh0nOwrm6psJOgy-67" style="edgeStyle=orthogonalEdgeStyle;rounded=0;orthogonalLoop=1;jettySize=auto;html=1;" parent="1" source="FVwCDYh0nOwrm6psJOgy-53" target="FVwCDYh0nOwrm6psJOgy-57" edge="1">
          <mxGeometry relative="1" as="geometry" />
        </mxCell>
        <mxCell id="FVwCDYh0nOwrm6psJOgy-53" value="&lt;span style=&quot;font-size: 18px;&quot;&gt;卤制阶段的特征风味&lt;/span&gt;" style="whiteSpace=wrap;html=1;rounded=0;" parent="1" vertex="1">
          <mxGeometry x="656" y="330" width="120" height="50" as="geometry" />
        </mxCell>
        <mxCell id="FVwCDYh0nOwrm6psJOgy-69" style="edgeStyle=orthogonalEdgeStyle;rounded=0;orthogonalLoop=1;jettySize=auto;html=1;entryX=0.5;entryY=0;entryDx=0;entryDy=0;" parent="1" source="FVwCDYh0nOwrm6psJOgy-56" target="FVwCDYh0nOwrm6psJOgy-68" edge="1">
          <mxGeometry relative="1" as="geometry" />
        </mxCell>
        <mxCell id="FVwCDYh0nOwrm6psJOgy-56" value="&lt;span style=&quot;font-size: 18px;&quot;&gt;GCMS&lt;/span&gt;" style="whiteSpace=wrap;html=1;rounded=0;" parent="1" vertex="1">
          <mxGeometry x="580" y="440" width="120" height="40" as="geometry" />
        </mxCell>
        <mxCell id="FVwCDYh0nOwrm6psJOgy-70" style="edgeStyle=orthogonalEdgeStyle;rounded=0;orthogonalLoop=1;jettySize=auto;html=1;endArrow=none;endFill=0;" parent="1" edge="1">
          <mxGeometry relative="1" as="geometry">
            <mxPoint x="792.4974093264249" y="460" as="sourcePoint" />
            <mxPoint x="716" y="515" as="targetPoint" />
            <Array as="points">
              <mxPoint x="793" y="515" />
            </Array>
          </mxGeometry>
        </mxCell>
        <mxCell id="FVwCDYh0nOwrm6psJOgy-57" value="&lt;span style=&quot;font-size: 18px;&quot;&gt;气敏传感器阵列&lt;/span&gt;" style="whiteSpace=wrap;html=1;rounded=0;" parent="1" vertex="1">
          <mxGeometry x="715" y="440" width="155" height="40" as="geometry" />
        </mxCell>
        <mxCell id="FVwCDYh0nOwrm6psJOgy-62" value="" style="endArrow=none;html=1;rounded=0;" parent="1" edge="1">
          <mxGeometry width="50" height="50" relative="1" as="geometry">
            <mxPoint x="560" y="145" as="sourcePoint" />
            <mxPoint x="563" y="145" as="targetPoint" />
          </mxGeometry>
        </mxCell>
        <mxCell id="FVwCDYh0nOwrm6psJOgy-63" value="" style="endArrow=none;html=1;rounded=0;" parent="1" edge="1">
          <mxGeometry width="50" height="50" relative="1" as="geometry">
            <mxPoint x="560" y="135" as="sourcePoint" />
            <mxPoint x="564" y="135" as="targetPoint" />
          </mxGeometry>
        </mxCell>
        <mxCell id="FVwCDYh0nOwrm6psJOgy-64" value="" style="endArrow=none;html=1;rounded=0;" parent="1" edge="1">
          <mxGeometry width="50" height="50" relative="1" as="geometry">
            <mxPoint x="560" y="145" as="sourcePoint" />
            <mxPoint x="560" y="135" as="targetPoint" />
          </mxGeometry>
        </mxCell>
        <mxCell id="FVwCDYh0nOwrm6psJOgy-65" value="" style="endArrow=none;html=1;rounded=0;" parent="1" edge="1">
          <mxGeometry width="50" height="50" relative="1" as="geometry">
            <mxPoint x="564" y="135" as="sourcePoint" />
            <mxPoint x="564" y="95" as="targetPoint" />
          </mxGeometry>
        </mxCell>
        <mxCell id="FVwCDYh0nOwrm6psJOgy-73" style="edgeStyle=orthogonalEdgeStyle;rounded=0;orthogonalLoop=1;jettySize=auto;html=1;entryX=0;entryY=0.5;entryDx=0;entryDy=0;" parent="1" source="FVwCDYh0nOwrm6psJOgy-68" target="FVwCDYh0nOwrm6psJOgy-71" edge="1">
          <mxGeometry relative="1" as="geometry">
            <Array as="points">
              <mxPoint x="556" y="560" />
              <mxPoint x="556" y="660" />
            </Array>
          </mxGeometry>
        </mxCell>
        <mxCell id="FVwCDYh0nOwrm6psJOgy-68" value="&lt;span style=&quot;font-size: 18px;&quot;&gt;挥发性风味定量预测模型&lt;/span&gt;" style="whiteSpace=wrap;html=1;rounded=0;" parent="1" vertex="1">
          <mxGeometry x="601" y="550" width="230" height="40" as="geometry" />
        </mxCell>
        <mxCell id="FVwCDYh0nOwrm6psJOgy-75" style="edgeStyle=orthogonalEdgeStyle;rounded=0;orthogonalLoop=1;jettySize=auto;html=1;entryX=0;entryY=0.5;entryDx=0;entryDy=0;startArrow=classic;startFill=1;" parent="1" source="FVwCDYh0nOwrm6psJOgy-71" target="FVwCDYh0nOwrm6psJOgy-72" edge="1">
          <mxGeometry relative="1" as="geometry" />
        </mxCell>
        <mxCell id="FVwCDYh0nOwrm6psJOgy-71" value="&lt;span style=&quot;font-size: 18px;&quot;&gt;云服务器&lt;/span&gt;" style="whiteSpace=wrap;html=1;rounded=0;" parent="1" vertex="1">
          <mxGeometry x="576" y="630" width="164" height="60" as="geometry" />
        </mxCell>
        <mxCell id="FVwCDYh0nOwrm6psJOgy-72" value="&lt;span style=&quot;font-size: 18px;&quot;&gt;智能手机平台&lt;/span&gt;" style="whiteSpace=wrap;html=1;rounded=1;fillColor=#d80073;strokeColor=#A50040;shadow=1;fontColor=#ffffff;" parent="1" vertex="1">
          <mxGeometry x="776" y="630" width="164" height="60" as="geometry" />
        </mxCell>
        <mxCell id="xyNp4E9_5skIMut7RiBI-7" value="" style="edgeStyle=orthogonalEdgeStyle;rounded=0;orthogonalLoop=1;jettySize=auto;html=1;" edge="1" parent="1" source="xyNp4E9_5skIMut7RiBI-1" target="xyNp4E9_5skIMut7RiBI-5">
          <mxGeometry relative="1" as="geometry" />
        </mxCell>
        <mxCell id="xyNp4E9_5skIMut7RiBI-9" style="edgeStyle=orthogonalEdgeStyle;rounded=0;orthogonalLoop=1;jettySize=auto;html=1;entryX=0.5;entryY=0;entryDx=0;entryDy=0;" edge="1" parent="1" source="xyNp4E9_5skIMut7RiBI-1" target="xyNp4E9_5skIMut7RiBI-4">
          <mxGeometry relative="1" as="geometry">
            <Array as="points">
              <mxPoint x="285" y="410" />
              <mxPoint x="245" y="410" />
            </Array>
          </mxGeometry>
        </mxCell>
        <mxCell id="xyNp4E9_5skIMut7RiBI-10" style="edgeStyle=orthogonalEdgeStyle;rounded=0;orthogonalLoop=1;jettySize=auto;html=1;entryX=0.5;entryY=0;entryDx=0;entryDy=0;" edge="1" parent="1" source="xyNp4E9_5skIMut7RiBI-1" target="xyNp4E9_5skIMut7RiBI-6">
          <mxGeometry relative="1" as="geometry">
            <Array as="points">
              <mxPoint x="285" y="410" />
              <mxPoint x="325" y="410" />
            </Array>
          </mxGeometry>
        </mxCell>
        <mxCell id="xyNp4E9_5skIMut7RiBI-13" style="edgeStyle=orthogonalEdgeStyle;rounded=0;orthogonalLoop=1;jettySize=auto;html=1;entryX=0.5;entryY=0;entryDx=0;entryDy=0;" edge="1" parent="1" source="xyNp4E9_5skIMut7RiBI-1" target="xyNp4E9_5skIMut7RiBI-11">
          <mxGeometry relative="1" as="geometry">
            <Array as="points">
              <mxPoint x="285" y="410" />
              <mxPoint x="365" y="410" />
            </Array>
          </mxGeometry>
        </mxCell>
        <mxCell id="xyNp4E9_5skIMut7RiBI-15" style="edgeStyle=orthogonalEdgeStyle;rounded=0;orthogonalLoop=1;jettySize=auto;html=1;" edge="1" parent="1" source="xyNp4E9_5skIMut7RiBI-1" target="xyNp4E9_5skIMut7RiBI-3">
          <mxGeometry relative="1" as="geometry">
            <Array as="points">
              <mxPoint x="285" y="410" />
              <mxPoint x="205" y="410" />
            </Array>
          </mxGeometry>
        </mxCell>
        <mxCell id="xyNp4E9_5skIMut7RiBI-1" value="&lt;span style=&quot;font-size: 18px;&quot;&gt;电子舌&lt;/span&gt;" style="whiteSpace=wrap;html=1;rounded=0;" vertex="1" parent="1">
          <mxGeometry x="225" y="349.68" width="120" height="40" as="geometry" />
        </mxCell>
        <mxCell id="xyNp4E9_5skIMut7RiBI-3" value="&lt;font style=&quot;font-size: 18px;&quot;&gt;酸&lt;/font&gt;" style="whiteSpace=wrap;html=1;rounded=0;fontSize=18;" vertex="1" parent="1">
          <mxGeometry x="190" y="439.68" width="30" height="120" as="geometry" />
        </mxCell>
        <mxCell id="xyNp4E9_5skIMut7RiBI-4" value="&lt;font style=&quot;font-size: 18px;&quot;&gt;甜&lt;/font&gt;" style="whiteSpace=wrap;html=1;rounded=0;fontSize=18;" vertex="1" parent="1">
          <mxGeometry x="230" y="439.68" width="30" height="120" as="geometry" />
        </mxCell>
        <mxCell id="xyNp4E9_5skIMut7RiBI-5" value="苦" style="whiteSpace=wrap;html=1;rounded=0;fontSize=18;" vertex="1" parent="1">
          <mxGeometry x="270" y="439.68" width="30" height="120" as="geometry" />
        </mxCell>
        <mxCell id="xyNp4E9_5skIMut7RiBI-6" value="咸" style="whiteSpace=wrap;html=1;rounded=0;fontSize=18;" vertex="1" parent="1">
          <mxGeometry x="310" y="439.68" width="30" height="120" as="geometry" />
        </mxCell>
        <mxCell id="xyNp4E9_5skIMut7RiBI-11" value="咸" style="whiteSpace=wrap;html=1;rounded=0;fontSize=18;" vertex="1" parent="1">
          <mxGeometry x="350" y="439.68" width="30" height="120" as="geometry" />
        </mxCell>
        <mxCell id="xyNp4E9_5skIMut7RiBI-16" value="&lt;span style=&quot;font-size: 18px;&quot;&gt;电化学传感器阵列制备及应用&lt;/span&gt;" style="whiteSpace=wrap;html=1;rounded=1;labelBackgroundColor=none;fillColor=#cdeb8b;strokeColor=#36393d;gradientColor=none;gradientDirection=north;glass=0;shadow=1;" vertex="1" parent="1">
          <mxGeometry x="390" y="220" width="130" height="50" as="geometry" />
        </mxCell>
        <mxCell id="xyNp4E9_5skIMut7RiBI-17" value="&lt;span style=&quot;font-size: 18px;&quot;&gt;敏感单元筛选&lt;/span&gt;" style="whiteSpace=wrap;html=1;rounded=0;" vertex="1" parent="1">
          <mxGeometry x="400" y="300" width="120" height="40" as="geometry" />
        </mxCell>
        <mxCell id="xyNp4E9_5skIMut7RiBI-18" value="&lt;span style=&quot;font-size: 18px;&quot;&gt;电路仿真&lt;/span&gt;" style="whiteSpace=wrap;html=1;rounded=0;" vertex="1" parent="1">
          <mxGeometry x="400" y="363.82" width="120" height="40" as="geometry" />
        </mxCell>
        <mxCell id="xyNp4E9_5skIMut7RiBI-19" value="&lt;span style=&quot;font-size: 18px;&quot;&gt;电路板设计及制备&lt;/span&gt;" style="whiteSpace=wrap;html=1;rounded=0;" vertex="1" parent="1">
          <mxGeometry x="400" y="430.31999999999994" width="120" height="40" as="geometry" />
        </mxCell>
        <mxCell id="xyNp4E9_5skIMut7RiBI-20" value="&lt;span style=&quot;font-size: 18px;&quot;&gt;测试&lt;/span&gt;" style="whiteSpace=wrap;html=1;rounded=0;" vertex="1" parent="1">
          <mxGeometry x="400" y="489.9999999999999" width="120" height="40" as="geometry" />
        </mxCell>
        <mxCell id="xyNp4E9_5skIMut7RiBI-21" value="&lt;span style=&quot;font-size: 18px;&quot;&gt;测试&lt;/span&gt;" style="whiteSpace=wrap;html=1;rounded=0;" vertex="1" parent="1">
          <mxGeometry x="400" y="549.9999999999999" width="120" height="40" as="geometry" />
        </mxCell>
      </root>
    </mxGraphModel>
  </diagram>
</mxfile>
